<?xml version="1.0" standalone="no"?>
<!DOCTYPE svg PUBLIC "-//W3C//DTD SVG 20010904//EN"
 "http://www.w3.org/TR/2001/REC-SVG-20010904/DTD/svg10.dtd">
<svg version="1.0" xmlns="http://www.w3.org/2000/svg"
 width="428.000000pt" height="1432.000000pt" viewBox="0 0 428.000000 1432.000000"
 preserveAspectRatio="xMidYMid meet">

<g transform="translate(0.000000,1432.000000) scale(0.100000,-0.100000)"
fill="#000000" stroke="none">
<path d="M1920 14234 c-57 -10 -148 -49 -200 -84 -138 -94 -239 -258 -396
-644 -71 -173 -135 -308 -207 -431 -25 -44 -63 -116 -84 -160 l-38 -80 0 -135
c0 -120 3 -140 23 -182 22 -45 42 -69 42 -50 0 5 -5 46 -11 91 -12 87 -3 168
28 266 23 73 55 142 60 128 2 -7 0 -20 -6 -30 -33 -63 -51 -286 -31 -394 13
-71 79 -203 130 -261 51 -59 129 -111 155 -104 10 3 46 -8 80 -25 40 -19 89
-33 148 -41 68 -9 87 -15 87 -27 0 -31 -72 -122 -129 -165 -142 -104 -394
-206 -514 -206 -53 0 -165 -28 -223 -54 -66 -30 -141 -106 -182 -184 -58 -109
-64 -169 -67 -620 -2 -348 -5 -431 -23 -572 -12 -91 -29 -246 -37 -345 -17
-196 -32 -273 -95 -470 -63 -198 -89 -309 -100 -430 -6 -60 -24 -247 -41 -415
-16 -168 -34 -354 -39 -415 -18 -207 -35 -321 -76 -492 -13 -57 -24 -132 -24
-167 0 -35 -17 -182 -37 -327 -20 -145 -37 -277 -37 -294 1 -29 53 -208 96
-328 39 -108 247 -294 360 -321 23 -5 30 -2 43 23 24 47 18 65 -33 113 -26 24
-53 52 -60 61 -12 14 -11 15 18 7 62 -18 43 42 -46 143 -69 77 -114 191 -114
287 0 54 15 83 30 60 12 -19 33 -90 61 -210 24 -107 40 -142 76 -176 73 -67
100 11 72 206 -6 41 -12 163 -13 270 l-1 195 -54 133 -55 133 12 72 c17 94 66
241 137 402 99 226 190 453 270 675 154 423 165 475 171 772 3 148 11 281 24
380 12 84 23 174 27 201 3 26 9 47 14 47 12 0 42 -103 100 -350 43 -187 53
-246 57 -347 3 -75 0 -140 -7 -168 -11 -44 -55 -148 -161 -385 -131 -292 -290
-878 -355 -1305 -20 -130 -23 -463 -5 -625 29 -271 118 -703 205 -995 13 -44
42 -150 63 -235 22 -85 65 -249 96 -363 75 -277 82 -313 111 -602 22 -220 21
-466 -4 -723 -26 -261 -28 -599 -6 -782 25 -205 102 -604 180 -940 103 -439
108 -471 109 -695 1 -148 -3 -203 -16 -250 -9 -33 -19 -82 -23 -109 -4 -27 -9
-55 -13 -64 -3 -10 -1 -13 6 -8 25 15 11 -47 -27 -122 -22 -42 -49 -101 -60
-130 -30 -77 -88 -178 -143 -251 -73 -97 -100 -160 -106 -245 -4 -71 -3 -74
28 -110 62 -70 109 -88 335 -126 28 -5 73 -16 100 -25 95 -30 168 4 202 93 9
26 32 71 50 100 39 65 50 113 59 259 4 61 9 115 13 120 3 4 22 20 42 35 21 15
47 48 59 74 22 44 22 54 16 193 -20 412 -23 449 -44 531 -70 278 -54 738 44
1320 26 151 28 188 29 425 0 170 -5 291 -14 350 -7 50 -24 160 -37 245 -13 85
-24 181 -24 214 0 33 20 148 45 263 66 298 74 430 49 841 -12 202 -19 437 -19
647 0 314 2 339 30 525 24 161 29 227 30 380 0 102 -4 227 -8 278 l-8 92 94 0
93 0 -1 -282 c0 -219 4 -308 17 -393 56 -360 60 -469 44 -1302 -10 -499 -5
-572 55 -824 50 -210 51 -279 7 -553 -30 -188 -32 -217 -32 -446 1 -224 3
-263 32 -450 85 -546 103 -1037 49 -1320 -34 -181 -55 -644 -33 -725 4 -16 29
-49 54 -72 l47 -43 6 -154 5 -153 41 -69 c23 -38 52 -91 65 -118 40 -85 110
-103 232 -60 22 8 47 12 56 9 10 -3 57 1 105 10 94 16 162 47 221 101 l36 34
-3 77 c-5 87 -16 114 -106 252 -62 94 -91 155 -154 321 -23 63 -48 125 -55
138 -8 16 -10 49 -7 97 5 59 1 86 -18 146 -21 66 -24 91 -23 234 1 171 16 265
110 670 61 263 143 678 166 841 19 134 22 203 22 434 0 245 -4 305 -32 548
-19 161 -32 321 -32 392 0 112 27 399 51 535 12 70 74 314 129 505 208 725
276 1054 302 1463 21 338 -19 694 -121 1089 -92 358 -168 566 -329 903 -113
236 -137 317 -129 435 3 47 15 135 27 195 32 170 121 526 130 520 22 -13 51
-307 60 -595 10 -324 19 -387 95 -621 84 -263 147 -432 253 -679 57 -135 119
-283 137 -330 35 -90 85 -273 85 -312 0 -13 -28 -81 -62 -153 l-63 -130 0
-150 c0 -82 -6 -204 -14 -270 -16 -141 -7 -198 35 -217 21 -10 28 -8 49 12 31
30 50 88 70 226 18 117 26 141 44 130 22 -14 32 -84 21 -146 -17 -95 -36 -137
-88 -198 -57 -67 -92 -116 -92 -130 0 -5 10 -13 23 -16 l22 -6 -21 -18 c-12
-9 -36 -25 -53 -34 -27 -15 -31 -22 -31 -61 0 -24 6 -52 14 -62 14 -19 15 -19
58 4 68 38 199 126 246 166 51 44 62 66 142 265 l61 155 -21 165 c-11 91 -27
257 -35 370 -10 131 -26 258 -45 350 -16 80 -36 231 -45 335 -24 281 -73 802
-90 945 -16 134 -40 233 -111 456 -68 217 -72 239 -110 754 -12 169 -14 290
-9 567 6 358 3 416 -32 523 -37 115 -135 229 -235 275 -29 13 -118 36 -198 50
-221 40 -312 68 -436 136 -41 23 -96 62 -122 88 -51 50 -105 141 -100 168 3
18 63 38 161 53 107 16 231 119 297 247 35 68 50 140 57 264 11 226 -35 436
-201 910 -99 285 -141 362 -265 492 -100 105 -203 158 -320 165 -46 3 -93 0
-114 -7 -29 -10 -46 -9 -89 4 -55 16 -175 27 -218 19z"/>
<path d="M3311 8803 c-1 -12 4 -25 9 -28 12 -7 12 2 0 30 -8 19 -9 19 -9 -2z"/>
</g>
</svg>
