<?xml version="1.0" standalone="no"?>
<!DOCTYPE svg PUBLIC "-//W3C//DTD SVG 20010904//EN"
 "http://www.w3.org/TR/2001/REC-SVG-20010904/DTD/svg10.dtd">
<svg version="1.0" xmlns="http://www.w3.org/2000/svg"
 width="485.000000pt" height="1488.000000pt" viewBox="0 0 485.000000 1488.000000"
 preserveAspectRatio="xMidYMid meet">

<g transform="translate(0.000000,1488.000000) scale(0.100000,-0.100000)"
fill="#000000" stroke="none">
<path d="M2307 14720 c-26 -5 -91 -29 -143 -55 -83 -40 -108 -59 -197 -148
-129 -129 -151 -170 -172 -330 -8 -65 -15 -170 -15 -234 0 -106 -1 -115 -17
-108 -44 19 -70 17 -87 -6 -23 -33 -20 -71 14 -205 43 -164 78 -225 151 -262
21 -11 36 -27 41 -46 13 -50 30 -397 23 -466 -19 -183 -116 -266 -584 -500
-295 -147 -324 -160 -431 -185 -140 -34 -236 -90 -333 -194 -65 -71 -93 -115
-140 -226 -61 -143 -79 -241 -79 -427 0 -90 5 -203 12 -253 13 -105 9 -140
-35 -335 -44 -191 -53 -260 -71 -543 -8 -131 -21 -271 -29 -310 -8 -40 -25
-126 -39 -192 -46 -223 -57 -346 -57 -653 -1 -194 6 -379 19 -572 12 -157 24
-402 27 -545 3 -143 10 -300 16 -350 6 -50 9 -226 7 -397 l-3 -306 51 -74 c28
-40 76 -123 107 -184 60 -119 101 -165 184 -207 76 -39 284 -119 312 -120 23
-2 26 2 29 33 3 49 -34 110 -85 138 -37 20 -42 26 -37 51 7 33 -4 43 -78 71
-54 20 -58 24 -76 73 -31 83 -44 136 -45 196 -2 73 8 108 34 116 37 12 56 -21
79 -140 25 -128 44 -177 90 -229 27 -30 39 -36 64 -34 30 3 31 4 48 93 20 109
22 160 3 100 l-12 -40 -6 35 c-23 134 -27 180 -27 286 0 192 -39 310 -145 439
-65 79 -91 130 -105 205 -20 108 27 304 190 788 66 195 131 396 145 446 35
129 48 298 41 507 l-7 175 36 135 c19 74 58 226 87 337 l53 204 43 -94 c93
-197 111 -278 118 -528 5 -168 4 -201 -21 -360 -20 -128 -29 -235 -34 -400 -7
-195 -11 -239 -33 -325 -31 -117 -36 -159 -48 -400 -7 -152 -15 -209 -50 -370
-116 -534 -132 -653 -146 -1085 -8 -265 14 -597 55 -844 36 -208 66 -328 122
-481 87 -239 89 -249 88 -665 -1 -405 1 -389 -73 -675 -74 -290 -81 -465 -31
-780 13 -82 33 -223 45 -312 30 -234 95 -611 140 -808 21 -93 51 -244 66 -334
23 -143 26 -178 19 -265 -5 -56 -9 -153 -10 -216 l-1 -115 -91 -187 c-100
-204 -127 -248 -219 -355 -70 -80 -84 -103 -119 -201 -32 -89 -31 -116 5 -188
23 -47 41 -67 86 -97 72 -47 178 -79 275 -83 42 -1 97 -9 123 -18 26 -9 68
-16 95 -16 39 0 56 6 93 34 40 31 78 86 78 114 0 5 20 36 45 68 53 68 60 91
74 246 11 130 19 153 56 162 39 10 92 63 110 110 20 52 17 123 -10 270 -16 87
-16 107 -5 160 7 34 15 99 17 146 4 78 1 95 -32 190 -20 58 -42 143 -50 189
-19 108 -19 362 0 591 24 300 35 352 118 600 l52 155 -1 250 c0 237 -2 259
-32 429 -21 116 -35 227 -39 320 l-6 141 46 135 c125 370 140 466 162 1080 10
248 29 377 103 700 36 151 61 283 72 374 17 142 40 434 40 524 0 66 3 82 15
82 12 0 15 -15 15 -72 0 -93 16 -327 31 -443 14 -111 43 -254 109 -540 68
-292 77 -366 90 -725 17 -465 42 -628 148 -940 80 -239 81 -257 7 -740 -19
-127 -25 -204 -25 -335 0 -194 7 -233 88 -486 28 -85 53 -167 56 -184 14 -71
36 -305 46 -491 17 -298 1 -463 -65 -668 -31 -97 -31 -137 -3 -248 l23 -88
-19 -102 c-31 -169 -32 -217 -2 -275 27 -55 73 -99 112 -109 29 -7 38 -37 54
-187 13 -127 19 -146 69 -212 21 -28 48 -70 60 -93 31 -61 87 -119 126 -132
28 -9 47 -8 97 6 35 9 97 20 138 25 85 8 190 34 235 56 56 29 110 81 139 133
35 65 32 109 -17 226 -26 62 -53 103 -110 169 -80 91 -158 216 -206 331 -16
38 -47 105 -70 149 l-41 80 11 68 c9 52 9 87 1 145 -24 153 -12 301 48 602 67
336 110 589 135 800 9 74 27 203 41 285 31 186 54 398 54 490 0 107 -24 238
-85 480 l-57 220 4 245 c2 135 1 317 -1 405 l-4 160 41 120 c22 66 54 159 71
206 47 131 101 411 123 634 16 163 16 888 -1 1075 -14 165 -43 330 -106 610
-47 211 -60 295 -70 464 -7 118 -19 194 -60 381 -22 104 -26 149 -29 335 -2
130 -11 266 -22 345 -30 227 -19 544 26 710 17 62 99 257 114 272 3 4 6 -1 6
-10 0 -25 94 -369 137 -499 l37 -113 1 -255 c1 -154 6 -281 14 -320 24 -128
74 -300 191 -655 162 -494 164 -501 165 -665 0 -155 -5 -169 -96 -281 -96
-119 -133 -243 -123 -414 4 -68 1 -116 -15 -195 -26 -131 -28 -261 -5 -285 10
-10 25 -14 38 -11 12 3 24 6 27 6 4 0 23 24 42 53 31 45 39 69 57 177 22 133
44 185 76 185 24 0 54 -58 54 -106 0 -55 -56 -242 -76 -254 -61 -35 -170 -113
-178 -128 -8 -13 -7 -20 4 -27 12 -8 6 -17 -33 -53 -42 -39 -47 -49 -47 -86 0
-28 5 -44 15 -48 24 -9 180 55 284 116 142 84 184 126 238 240 25 53 68 128
94 167 l49 70 0 181 c0 100 -5 226 -10 282 -9 89 -8 115 10 209 17 89 20 147
20 353 0 135 8 348 17 475 12 156 17 351 18 614 0 417 -1 428 -61 675 -55 230
-64 290 -74 523 -12 263 -28 387 -78 571 -34 128 -36 145 -35 276 1 77 4 181
8 231 20 300 -100 609 -300 776 -78 66 -138 92 -290 128 -104 25 -156 45 -308
119 -100 49 -234 113 -297 144 -220 105 -357 213 -402 315 -27 61 -35 217 -18
367 26 229 19 207 71 231 39 19 49 31 72 81 37 84 76 225 83 304 6 55 3 73
-10 94 -14 22 -22 25 -50 20 l-33 -7 -7 144 c-7 158 -29 266 -75 364 -55 118
-239 270 -392 323 -65 23 -185 33 -252 21z"/>
<path d="M888 6803 c6 -2 18 -2 25 0 6 3 1 5 -13 5 -14 0 -19 -2 -12 -5z"/>
<path d="M923 6285 c0 -38 2 -53 4 -32 2 20 2 52 0 70 -2 17 -4 1 -4 -38z"/>
</g>
</svg>
